<svg xmlns="http://www.w3.org/2000/svg" viewBox="0 0 32 32">
  <rect width="32" height="32" fill="#0d0d0d"/>
  <!-- Lissajous curve: x(t) = sin(2t + π/5), y(t) = sin(3t), 120 points -->
  <polyline
    fill="none"
    stroke="#e8e8e8"
    stroke-width="1.2"
    stroke-linecap="round"
    stroke-linejoin="round"
    points="
      23.6,16.0 24.7,14.0 25.7,12.0 26.5,10.1 27.3,8.4 27.9,6.8
      28.4,5.5 28.7,4.4 28.9,3.6 29.0,3.2 28.9,3.0 28.7,3.2
      28.4,3.6 27.9,4.4 27.3,5.5 26.5,6.8 25.7,8.4 24.7,10.1
      23.6,12.0 22.5,14.0 21.3,16.0 20.0,18.0 18.7,20.0 17.4,21.9
      16.0,23.6 14.6,25.2 13.3,26.5 12.0,27.6 10.7,28.4 9.5,28.8
      8.4,29.0 7.3,28.8 6.3,28.4 5.5,27.6 4.7,26.5 4.1,25.2
      3.6,23.6 3.3,21.9 3.1,20.0 3.0,18.0 3.1,16.0 3.3,14.0
      3.6,12.0 4.1,10.1 4.7,8.4 5.5,6.8 6.3,5.5 7.3,4.4
      8.4,3.6 9.5,3.2 10.7,3.0 12.0,3.2 13.3,3.6 14.6,4.4
      16.0,5.5 17.4,6.8 18.7,8.4 20.0,10.1 21.3,12.0 22.5,14.0
      23.6,16.0 24.7,18.0 25.7,20.0 26.5,21.9 27.3,23.6 27.9,25.2
      28.4,26.5 28.7,27.6 28.9,28.4 29.0,28.8 28.9,29.0 28.7,28.8
      28.4,28.4 27.9,27.6 27.3,26.5 26.5,25.2 25.7,23.6 24.7,21.9
      23.6,20.0 22.5,18.0 21.3,16.0 20.0,14.0 18.7,12.0 17.4,10.1
      16.0,8.4 14.6,6.8 13.3,5.5 12.0,4.4 10.7,3.6 9.5,3.2
      8.4,3.0 7.3,3.2 6.3,3.6 5.5,4.4 4.7,5.5 4.1,6.8
      3.6,8.4 3.3,10.1 3.1,12.0 3.0,14.0 3.1,16.0 3.3,18.0
      3.6,20.0 4.1,21.9 4.7,23.6 5.5,25.2 6.3,26.5 7.3,27.6
      8.4,28.4 9.5,28.8 10.7,29.0 12.0,28.8 13.3,28.4 14.6,27.6
      16.0,26.5 17.4,25.2 18.7,23.6 20.0,21.9 21.3,20.0 22.5,18.0
      23.6,16.0
    "/>
</svg>
